<svg xmlns="http://www.w3.org/2000/svg" viewBox="0 0 100 100" width="900" height="900">
  <rect x="0" y="0" width="100" height="100" fill="#F5F0E7"/>
  <ellipse cx="50" cy="73" rx="27" ry="4.4" fill="#E7E2DA"/>
  <circle cx="22.37" cy="51" r="6.58" fill="#8FB3A4"/>
  <circle cx="22.37" cy="51" r="3.03" fill="#F5F0E7"/>
  <path d="M26 36 L27.3 60.5 Q27.7 64 30.8 64 L47.2 64 Q50.3 64 50.7 60.5 L52 36 Z" fill="#8FB3A4"/>
  <path d="M26.52 47.2 L51.48 47.2 L51.19 53.36 L26.81 53.36 Z" fill="#79988B"/>
  <ellipse cx="39" cy="36" rx="13" ry="3.2" fill="#84A698"/>
  <circle cx="75.89" cy="60" r="7.05" fill="#EBDFC9"/>
  <circle cx="75.89" cy="60" r="3.24" fill="#F5F0E7"/>
  <path d="M44 44 L45.4 70.5 Q45.8 74 48.9 74 L67.1 74 Q70.2 74 70.6 70.5 L72 44 Z" fill="#EBDFC9"/>
  <path d="M44.56 56 L71.44 56 L71.13 62.6 L44.87 62.6 Z" fill="#C7BDAA"/>
  <ellipse cx="58" cy="44" rx="14" ry="3.2" fill="#DACFBA"/>
</svg>
